<svg width="60" height="60" viewBox="0 0 60 60" xmlns="http://www.w3.org/2000/svg">
  <!-- Soft background glow -->
  <circle cx="30" cy="30" r="28" fill="#E0F2FE" />
  <!-- Minimalist tooth icon matching the AboutSection & Logo -->
  <path d="M30 16 
           C21 16, 15 22, 15 32 
           C15 40, 18 44, 20 49 
           C22 54, 25 56, 27 56 
           C29 56, 30 55, 30 52 
           C30 55, 31 56, 33 56 
           C35 56, 38 54, 40 49 
           C42 44, 45 40, 45 32 
           C45 22, 39 16, 30 16 Z" 
        fill="#0077B6" 
        stroke="#005F8A" 
        stroke-width="2" />
  <!-- Sparkle top-right -->
  <path d="M42 12 L44 8 L48 10 L45 14 Z" fill="#F59E0B" />
  <path d="M40 8 L43 4 L46 7 L42 10 Z" fill="#F59E0B" />
</svg>
